<?xml version="1.0" standalone="no"?>
<!DOCTYPE svg PUBLIC "-//W3C//DTD SVG 20010904//EN"
 "http://www.w3.org/TR/2001/REC-SVG-20010904/DTD/svg10.dtd">
<svg version="1.0" xmlns="http://www.w3.org/2000/svg"
 width="646.000000pt" height="646.000000pt" viewBox="0 0 646.000000 646.000000"
 preserveAspectRatio="xMidYMid meet">
<metadata>
Created by potrace 1.11, written by Peter Selinger 2001-2013
</metadata>
<g transform="translate(0.000000,646.000000) scale(0.100000,-0.100000)"
fill="#000000" stroke="none">
<path d="M1827 5175 c-1 -2 -40 -5 -87 -9 -47 -4 -114 -9 -150 -12 -36 -3
-103 -14 -150 -26 -46 -11 -91 -22 -100 -23 -8 -2 -16 -4 -17 -5 -2 -2 -6 -3
-10 -5 -5 -1 -21 -5 -38 -10 -16 -4 -75 -26 -130 -47 -432 -171 -752 -469
-965 -901 -33 -66 -60 -127 -60 -134 0 -7 -4 -21 -10 -31 -25 -44 -75 -226
-85 -307 -2 -22 -8 -67 -12 -100 -30 -244 25 -566 136 -808 54 -117 203 -360
266 -432 15 -16 48 -54 73 -84 107 -124 217 -225 362 -330 30 -22 60 -44 65
-48 25 -20 189 -125 203 -130 10 -4 19 -9 22 -12 9 -11 175 -98 225 -118 17
-7 77 -33 135 -58 58 -26 148 -62 200 -80 163 -57 492 -147 585 -160 28 -3 61
-8 75 -11 82 -13 191 -5 310 24 69 17 140 34 159 37 19 3 38 8 41 10 4 3 25 7
46 11 56 9 252 106 304 151 14 12 57 48 95 80 39 31 78 66 88 78 10 11 33 36
50 55 18 19 40 52 51 72 27 54 204 190 305 235 70 31 225 73 254 68 12 -2 56
-6 97 -9 41 -4 93 -11 114 -16 22 -5 42 -8 45 -8 3 1 13 -2 21 -5 8 -3 56 -19
105 -36 188 -61 338 -121 630 -251 202 -89 193 -85 395 -182 102 -49 187 -90
190 -90 3 -1 21 -11 40 -23 19 -12 80 -46 135 -75 55 -29 117 -64 138 -77 31
-20 50 -24 95 -22 32 1 65 5 76 7 24 6 94 161 205 452 18 47 43 113 57 147 21
54 34 103 49 175 6 30 24 24 -375 139 -279 80 -316 91 -430 127 -112 35 -434
144 -505 172 -27 10 -95 35 -150 55 -125 46 -117 42 -257 110 -320 155 -445
292 -508 557 -22 93 -35 274 -19 283 8 6 5 115 -5 195 -3 19 -8 53 -10 75 -3
22 -8 50 -10 61 -2 12 -7 37 -10 55 -17 102 -46 185 -94 270 -58 104 -84 139
-163 219 -109 112 -263 232 -369 289 -25 14 -47 27 -50 30 -12 14 -226 123
-315 161 -11 4 -36 15 -55 23 -84 37 -372 134 -450 152 -8 2 -45 10 -83 19
-37 9 -79 18 -95 20 -238 39 -274 44 -352 52 -54 5 -318 13 -323 9z"/>
</g>
</svg>
